<svg width="430" height="430" viewBox="0 0 430 430" fill="none" xmlns="http://www.w3.org/2000/svg">
<path d="M389.26 108.93C388.94 108.497 388.523 108.146 388.041 107.907C387.56 107.667 387.028 107.544 386.49 107.55H347.18L98.94 107.46C98.6487 107.46 98.3608 107.523 98.0965 107.646C97.8322 107.768 97.5979 107.947 97.41 108.17C97.2237 108.392 97.0878 108.652 97.0118 108.932C96.9358 109.211 96.9216 109.504 96.97 109.79L125.06 276.39C125.107 276.671 125.214 276.938 125.373 277.175C125.532 277.411 125.74 277.611 125.982 277.76C126.224 277.91 126.496 278.006 126.778 278.042C127.061 278.078 127.348 278.054 127.62 277.97C129.26 277.46 134.25 277.08 140.56 276.59C147.22 276.08 155.51 275.45 165.4 274.32L311.1 257.72C332.1 255.33 353.98 236.87 359.86 216.57L378.62 151.87C384.31 132.26 389.33 114.94 389.82 113.23C390.068 112.519 390.147 111.76 390.05 111.014C389.952 110.267 389.682 109.553 389.26 108.93Z" fill="#EBE6EF"/>
<g style="mix-blend-mode:multiply" opacity="0.5">
<path d="M154 253.1C153.476 253.138 152.95 253.073 152.451 252.907C151.952 252.742 151.491 252.48 151.094 252.137C150.696 251.793 150.37 251.374 150.135 250.905C149.899 250.435 149.758 249.924 149.72 249.4L139.32 107.46H98.94C98.6487 107.46 98.3608 107.523 98.0965 107.646C97.8322 107.768 97.5979 107.947 97.41 108.17C97.2237 108.392 97.0878 108.652 97.0118 108.932C96.9358 109.211 96.9216 109.504 96.97 109.79L125.06 276.39C125.107 276.671 125.214 276.938 125.373 277.175C125.532 277.411 125.74 277.611 125.982 277.76C126.224 277.91 126.496 278.006 126.778 278.042C127.061 278.078 127.348 278.054 127.62 277.97C129.26 277.46 134.25 277.08 140.56 276.59C147.22 276.08 155.51 275.45 165.4 274.32L311.1 257.72C323.76 256.28 336.73 248.99 346.33 238.99L154 253.1Z" fill="#EBE6EF"/>
</g>
<path d="M127 276.05C127 276.05 119.91 277.6 116.11 282.32C110.11 289.7 110.27 301.95 131.11 301.95H306.48" stroke="#3A3347" stroke-width="7" stroke-linecap="round" stroke-linejoin="round"/>
<path d="M144.14 298C149.628 298 154.993 299.628 159.557 302.677C164.12 305.726 167.677 310.06 169.778 315.131C171.878 320.201 172.427 325.781 171.357 331.164C170.286 336.547 167.643 341.491 163.762 345.372C159.881 349.253 154.937 351.896 149.554 352.967C144.171 354.038 138.591 353.488 133.52 351.388C128.45 349.287 124.116 345.731 121.067 341.167C118.017 336.604 116.39 331.238 116.39 325.75C116.393 318.391 119.317 311.334 124.521 306.131C129.724 300.927 136.781 298.003 144.14 298Z" fill="#646E78"/>
<path d="M308.33 298C313.818 298 319.183 299.628 323.747 302.677C328.31 305.726 331.867 310.06 333.967 315.131C336.068 320.201 336.617 325.781 335.547 331.164C334.476 336.547 331.833 341.491 327.952 345.372C324.071 349.253 319.127 351.896 313.744 352.967C308.361 354.038 302.781 353.488 297.71 351.388C292.64 349.287 288.306 345.731 285.257 341.167C282.207 336.604 280.58 331.238 280.58 325.75C280.582 318.391 283.507 311.334 288.711 306.131C293.914 300.927 300.971 298.003 308.33 298Z" fill="#646E78"/>
<path d="M41.9299 72.55H67.3699C81.3699 72.55 95.5499 88.9 98.9399 109.04L127.03 276.04" stroke="#3A3347" stroke-width="7" stroke-linecap="round" stroke-linejoin="round"/>
<g style="mix-blend-mode:multiply" opacity="0.5">
<path d="M150.54 345.92C145.664 345.922 140.873 344.639 136.651 342.199C132.429 339.76 128.924 336.25 126.491 332.025C124.057 327.799 122.78 323.007 122.789 318.131C122.797 313.255 124.091 308.467 126.54 304.25C123.395 306.826 120.855 310.061 119.098 313.726C117.342 317.392 116.412 321.399 116.374 325.463C116.337 329.528 117.193 333.551 118.882 337.248C120.571 340.946 123.051 344.227 126.148 346.86C129.245 349.493 132.882 351.413 136.803 352.486C140.724 353.558 144.832 353.756 148.838 353.065C152.844 352.374 156.649 350.812 159.984 348.489C163.319 346.166 166.104 343.138 168.14 339.62C163.184 343.703 156.961 345.93 150.54 345.92Z" fill="#646E78"/>
</g>
<g style="mix-blend-mode:multiply" opacity="0.5">
<path d="M314.73 345.92C309.854 345.922 305.063 344.639 300.841 342.199C296.619 339.76 293.114 336.25 290.681 332.025C288.247 327.799 286.97 323.007 286.979 318.131C286.987 313.255 288.281 308.467 290.73 304.25C287.585 306.826 285.045 310.061 283.288 313.726C281.531 317.392 280.602 321.399 280.564 325.463C280.527 329.528 281.383 333.551 283.072 337.248C284.761 340.946 287.241 344.227 290.338 346.86C293.435 349.493 297.072 351.413 300.993 352.486C304.914 353.558 309.022 353.756 313.028 353.065C317.033 352.374 320.839 350.812 324.174 348.489C327.509 346.166 330.294 343.138 332.33 339.62C327.374 343.703 321.151 345.93 314.73 345.92Z" fill="#646E78"/>
</g>
</svg>
