<svg width="430" height="430" viewBox="0 0 430 430" fill="none" xmlns="http://www.w3.org/2000/svg">
<path d="M358.19 266.2V182.41L310.6 195.1L290.22 200.5L228.3 217.05L215.65 220.42L215.71 286.28L215.8 397.5C216.085 397.497 216.368 397.453 216.64 397.37L290.87 374.37L297.7 372.26L356.09 354.17C356.701 353.98 357.235 353.6 357.615 353.086C357.994 352.572 358.199 351.949 358.2 351.31L358.19 266.2Z" fill="#F9C9C0"/>
<path d="M215.8 397.5C215.556 397.501 215.314 397.468 215.08 397.4H215L139.84 374.7L133 372.63L74.8399 355.09L74.6199 355.01L74.3899 354.91C74.249 354.838 74.1121 354.757 73.9799 354.67C73.8856 354.602 73.7954 354.529 73.7099 354.45L73.5999 354.35L73.4599 354.2L73.3199 354.02C73.3121 353.994 73.3121 353.966 73.3199 353.94C73.2448 353.85 73.1841 353.749 73.1399 353.64C73.1399 353.64 73.1399 353.58 73.1399 353.55C73.0966 353.482 73.063 353.408 73.0399 353.33V353.26C73.0399 353.26 73.0399 353.26 73.0399 353.2C73.0399 353.14 73.0399 353.2 73.0399 353.14C73.0399 353.08 73.0399 353.14 73.0399 353.14V353.09C73.0355 353.033 73.0355 352.977 73.0399 352.92C73.0351 352.873 73.0351 352.827 73.0399 352.78C73.0399 352.78 73.0399 352.78 73.0399 352.71C73.0251 352.58 73.0251 352.45 73.0399 352.32L72.3099 265.5L71.9199 183.33V183.25L120 195.67L140.37 200.94L215.64 220.41L215.7 286.27L215.8 397.5Z" fill="#F9C9C0"/>
<g style="mix-blend-mode:multiply" opacity="0.9">
<path d="M215.8 397.5C215.556 397.501 215.314 397.468 215.08 397.4H215L139.84 374.7L133 372.63L74.8399 355.09L74.6199 355.01L74.3899 354.91C74.249 354.838 74.1121 354.757 73.9799 354.67C73.8856 354.602 73.7954 354.529 73.7099 354.45L73.5999 354.35L73.4599 354.2L73.3199 354.02C73.3121 353.994 73.3121 353.966 73.3199 353.94C73.2448 353.85 73.1841 353.749 73.1399 353.64C73.1399 353.64 73.1399 353.58 73.1399 353.55C73.0966 353.482 73.063 353.408 73.0399 353.33V353.26C73.0399 353.26 73.0399 353.26 73.0399 353.2C73.0399 353.14 73.0399 353.2 73.0399 353.14C73.0399 353.08 73.0399 353.14 73.0399 353.14V353.09C73.0355 353.033 73.0355 352.977 73.0399 352.92C73.0351 352.873 73.0351 352.827 73.0399 352.78C73.0399 352.78 73.0399 352.78 73.0399 352.71C73.0251 352.58 73.0251 352.45 73.0399 352.32L72.3099 265.5L71.9199 183.33V183.25L120 195.67L140.37 200.94L215.64 220.41L215.7 286.27L215.8 397.5Z" fill="#F9C9C0"/>
</g>
<path d="M380.559 134.81L380.139 174.38C380.149 174.463 380.149 174.547 380.139 174.63C380.083 175.239 379.842 175.816 379.449 176.284C379.056 176.753 378.529 177.09 377.939 177.25L358.189 182.5L215.649 220.42L71.9192 183.3L52.0992 178.18C51.461 178.015 50.8948 177.645 50.4881 177.126C50.0814 176.607 49.8569 175.969 49.8492 175.31L49.4492 134.81C49.4753 134.059 49.7822 133.346 50.3092 132.81L214.999 175.31L379.699 132.79C380.15 133.249 380.438 133.842 380.519 134.48C380.542 134.589 380.556 134.699 380.559 134.81Z" fill="#F9C9C0"/>
<path d="M379.679 132.78C379.315 132.401 378.855 132.128 378.349 131.99L215.719 89.9899C215.226 89.8699 214.712 89.8699 214.219 89.9899L51.6488 131.99C51.1347 132.135 50.6687 132.415 50.2988 132.8L214.939 175.27L379.659 132.75L379.679 132.78Z" fill="#F9C9C0"/>
<g style="mix-blend-mode:multiply" opacity="0.3">
<path d="M379.679 132.78L214.999 175.31L50.2995 132.84C49.7725 133.375 49.4656 134.089 49.4395 134.84L49.8495 175.34C49.8571 175.999 50.0816 176.637 50.4883 177.156C50.895 177.675 51.4612 178.045 52.0995 178.21L71.9195 183.33L215.619 220.44L228.259 217.08L358.149 182.5L377.859 177.26C378.453 177.103 378.984 176.768 379.381 176.299C379.778 175.831 380.022 175.251 380.079 174.64C380.079 174.56 380.079 174.47 380.079 174.39L380.479 134.49C380.391 133.852 380.1 133.26 379.649 132.8L379.679 132.78Z" fill="#F9C9C0"/>
</g>
<g style="mix-blend-mode:multiply" opacity="0.2">
<path d="M215.649 220.41L71.9192 183.3L52.0992 178.18C51.461 178.015 50.8948 177.645 50.4881 177.126C50.0814 176.607 49.8569 175.969 49.8492 175.31L49.4492 134.81C49.4753 134.059 49.7822 133.346 50.3092 132.81L214.999 175.31L215.649 220.41Z" fill="#F9C9C0"/>
</g>
<path d="M326.06 63.62C325.92 48.47 313.32 35.95 296.06 33.84C273.68 31.09 243.65 45.64 223.49 92.01C221.17 97.3433 218.993 103.073 216.96 109.2C214.933 103.052 212.597 97.0114 209.96 91.1C189.52 45.33 159.29 31.04 136.77 33.86C119.12 36.07 106.71 48.33 106.62 63.68C106.52 78.07 117.62 94.63 145.54 107.75C160.15 114.6 179.35 120.5 204 124.69L122.56 151.28C122.466 151.31 122.375 151.35 122.29 151.4C121.657 151.662 121.117 152.106 120.738 152.676C120.359 153.246 120.157 153.915 120.16 154.6L120 195.67V196.91C119.997 197.668 120.241 198.407 120.696 199.013C121.151 199.619 121.791 200.061 122.52 200.27L133.36 203.38L133 372.63L139.84 374.7C139.946 374.377 140 374.04 140 373.7L140.38 200.98V200.74C140.381 199.976 140.132 199.232 139.672 198.622C139.212 198.012 138.565 197.569 137.83 197.36L127 194.27L127.1 157.15L134.79 154.64L214.79 128.5L215 128.59C215.288 128.66 215.583 128.697 215.88 128.7H216.15L295.57 154.5L300.81 156.21L303.7 157.15L303.61 193L292.61 196.5C291.903 196.73 291.287 197.178 290.85 197.78C290.414 198.382 290.179 199.107 290.18 199.85V200.58L290.66 373.34C290.662 373.68 290.72 374.018 290.83 374.34L297.66 372.23L297.19 202.37L308.12 198.87C308.826 198.647 309.443 198.205 309.882 197.608C310.321 197.012 310.558 196.291 310.56 195.55V195.08L310.68 154.6C310.684 153.86 310.453 153.137 310.02 152.537C309.587 151.936 308.974 151.489 308.27 151.26H308.15L227.69 125.08C252.43 120.99 271.76 115.08 286.47 108.29C314.94 95.06 326.18 78.23 326.06 63.62ZM156.58 104.9C125.58 92.6 113.58 76.6 113.64 63.73C113.71 51.99 123.58 42.57 137.64 40.81C139.212 40.6083 140.795 40.5081 142.38 40.51C161.63 40.51 185.77 54.62 203.13 92.87C206.937 101.339 210.138 110.068 212.71 118.99C189.47 115.55 171 110.63 156.58 104.9ZM275.39 105.41C261.39 110.92 243.55 115.65 221.29 118.99C223.746 110.393 226.77 101.968 230.34 93.77C247.54 54.84 271.58 40.5 290.71 40.5C292.217 40.5008 293.724 40.5943 295.22 40.78C309.15 42.5 319 51.91 319.06 63.68C319.16 76.74 306.93 93.02 275.4 105.41H275.39Z" fill="#92140C"/>
</svg>
